<svg width="180" height="80" viewBox="0 0 180 80" fill="none" xmlns="http://www.w3.org/2000/svg">
<path d="M67.4134 50.6367L61.0639 28.8185H66.8913L70.1832 43.1154H70.3643L74.125 28.8185H78.8764L82.6371 43.1474H82.8182L86.1207 28.8185H91.9375L85.5987 50.6367H80.517L76.5859 37.4052H76.4155L72.4844 50.6367H67.4134ZM95.7126 50.9137C94.6686 50.9137 93.7418 50.7397 92.9321 50.3917C92.1295 50.0366 91.4939 49.5039 91.0251 48.7937C90.5635 48.0763 90.3327 47.1779 90.3327 46.0984C90.3327 45.1893 90.4925 44.4222 90.8121 43.7972C91.1317 43.1722 91.572 42.6644 92.1331 42.2738C92.6942 41.8832 93.3405 41.5884 94.072 41.3896C94.8036 41.1836 95.5848 41.0451 96.4158 40.9741C97.3462 40.8888 98.0955 40.8001 98.6636 40.7077C99.2318 40.6083 99.6437 40.4698 99.8994 40.2923C100.162 40.1076 100.294 39.8484 100.294 39.5146V39.4613C100.294 38.9144 100.105 38.4918 99.729 38.1935C99.3526 37.8952 98.8447 37.7461 98.2055 37.7461C97.5166 37.7461 96.9626 37.8952 96.5436 38.1935C96.1246 38.4918 95.8582 38.9038 95.7446 39.4293L90.9399 39.2589C91.082 38.2646 91.4477 37.3768 92.0372 36.5955C92.6338 35.8072 93.4506 35.1893 94.4875 34.7418C95.5315 34.2873 96.7851 34.06 98.2482 34.06C99.2922 34.06 100.255 34.1843 101.135 34.4329C102.016 34.6744 102.783 35.0295 103.436 35.4982C104.09 35.9599 104.594 36.5281 104.949 37.2028C105.311 37.8775 105.492 38.6481 105.492 39.5146V50.6367H100.592V48.3569H100.464C100.173 48.9109 99.8 49.3796 99.3455 49.7631C98.898 50.1467 98.3689 50.4343 97.7581 50.6261C97.1544 50.8178 96.4726 50.9137 95.7126 50.9137ZM97.3213 47.5046C97.8824 47.5046 98.3866 47.391 98.8341 47.1637C99.2886 46.9364 99.6509 46.6239 99.9207 46.2262C100.191 45.8214 100.326 45.3526 100.326 44.82V43.2646C100.176 43.3427 99.9953 43.4137 99.7822 43.4776C99.5763 43.5415 99.349 43.6019 99.1004 43.6587C98.8518 43.7156 98.5962 43.7653 98.3334 43.8079C98.0706 43.8505 97.8185 43.8896 97.577 43.9251C97.0869 44.0032 96.6679 44.1239 96.3199 44.2873C95.979 44.4506 95.7162 44.6637 95.5315 44.9265C95.354 45.1822 95.2652 45.4876 95.2652 45.8427C95.2652 46.3825 95.457 46.7944 95.8405 47.0785C96.2311 47.3626 96.7247 47.5046 97.3213 47.5046ZM107.478 50.6367V34.2731H112.538V37.256H112.709C113.007 36.1765 113.493 35.3739 114.168 34.8484C114.843 34.3157 115.628 34.0494 116.523 34.0494C116.764 34.0494 117.013 34.0671 117.268 34.1026C117.524 34.131 117.762 34.1772 117.982 34.2411V38.7688C117.734 38.6836 117.407 38.6161 117.002 38.5664C116.604 38.5167 116.249 38.4918 115.937 38.4918C115.319 38.4918 114.761 38.6303 114.264 38.9073C113.774 39.1772 113.387 39.5572 113.103 40.0472C112.826 40.5302 112.687 41.0984 112.687 41.7518V50.6367H107.478ZM122.902 50.9137C121.858 50.9137 120.932 50.7397 120.122 50.3917C119.319 50.0366 118.684 49.5039 118.215 48.7937C117.753 48.0763 117.523 47.1779 117.523 46.0984C117.523 45.1893 117.682 44.4222 118.002 43.7972C118.322 43.1722 118.762 42.6644 119.323 42.2738C119.884 41.8832 120.53 41.5884 121.262 41.3896C121.993 41.1836 122.775 41.0451 123.606 40.9741C124.536 40.8888 125.285 40.8001 125.853 40.7077C126.422 40.6083 126.834 40.4698 127.089 40.2923C127.352 40.1076 127.483 39.8484 127.483 39.5146V39.4613C127.483 38.9144 127.295 38.4918 126.919 38.1935C126.542 37.8952 126.035 37.7461 125.395 37.7461C124.706 37.7461 124.152 37.8952 123.733 38.1935C123.314 38.4918 123.048 38.9038 122.934 39.4293L118.13 39.2589C118.272 38.2646 118.638 37.3768 119.227 36.5955C119.824 35.8072 120.64 35.1893 121.677 34.7418C122.721 34.2873 123.975 34.06 125.438 34.06C126.482 34.06 127.444 34.1843 128.325 34.4329C129.206 34.6744 129.973 35.0295 130.626 35.4982C131.28 35.9599 131.784 36.5281 132.139 37.2028C132.501 37.8775 132.682 38.6481 132.682 39.5146V50.6367H127.782V48.3569H127.654C127.363 48.9109 126.99 49.3796 126.535 49.7631C126.088 50.1467 125.559 50.4343 124.948 50.6261C124.344 50.8178 123.662 50.9137 122.902 50.9137ZM124.511 47.5046C125.072 47.5046 125.576 47.391 126.024 47.1637C126.478 46.9364 126.841 46.6239 127.111 46.2262C127.38 45.8214 127.515 45.3526 127.515 44.82V43.2646C127.366 43.3427 127.185 43.4137 126.972 43.4776C126.766 43.5415 126.539 43.6019 126.29 43.6587C126.042 43.7156 125.786 43.7653 125.523 43.8079C125.26 43.8505 125.008 43.8896 124.767 43.9251C124.277 44.0032 123.858 44.1239 123.51 44.2873C123.169 44.4506 122.906 44.6637 122.721 44.9265C122.544 45.1822 122.455 45.4876 122.455 45.8427C122.455 46.3825 122.647 46.7944 123.03 47.0785C123.421 47.3626 123.915 47.5046 124.511 47.5046ZM134.668 50.6367V28.8185H139.877V37.0749H139.984C140.197 36.5778 140.499 36.0984 140.889 35.6367C141.287 35.1751 141.791 34.7987 142.402 34.5075C143.02 34.2092 143.759 34.06 144.618 34.06C145.754 34.06 146.816 34.3583 147.803 34.9549C148.798 35.5515 149.6 36.4712 150.211 37.7141C150.822 38.957 151.127 40.5408 151.127 42.4656C151.127 44.3192 150.832 45.8711 150.243 47.1211C149.661 48.3711 148.872 49.3086 147.878 49.9336C146.891 50.5586 145.793 50.8711 144.586 50.8711C143.762 50.8711 143.048 50.7362 142.445 50.4663C141.841 50.1964 141.333 49.8413 140.921 49.4009C140.516 48.9606 140.204 48.4883 139.984 47.984H139.824V50.6367H134.668ZM139.771 42.4549C139.771 43.3356 139.888 44.1026 140.122 44.756C140.364 45.4094 140.708 45.9173 141.156 46.2795C141.61 46.6346 142.153 46.8121 142.786 46.8121C143.425 46.8121 143.968 46.6346 144.416 46.2795C144.863 45.9173 145.2 45.4094 145.428 44.756C145.662 44.1026 145.779 43.3356 145.779 42.4549C145.779 41.5742 145.662 40.8107 145.428 40.1644C145.2 39.5181 144.863 39.0174 144.416 38.6623C143.975 38.3072 143.432 38.1296 142.786 38.1296C142.146 38.1296 141.603 38.3036 141.156 38.6516C140.708 38.9996 140.364 39.4968 140.122 40.1431C139.888 40.7894 139.771 41.56 139.771 42.4549Z" fill="#111827"/>
<path d="M29.5315 37.6368L39.9794 37.5281L47.5311 50.636L36.5307 50.6368L29.5315 37.6368Z" fill="#22C55E"/>
<path d="M60.0326 28.6377L49.0318 28.6385L36.5316 50.6384L47.3798 50.6379L60.0326 28.6377Z" fill="#111827"/>
</svg>
