<svg width="132" height="40" viewBox="0 0 132 40" fill="none" xmlns="http://www.w3.org/2000/svg">
<path d="M42.4134 30.6367L36.0639 8.81854H41.8913L45.1832 23.1154H45.3643L49.125 8.81854H53.8764L57.6371 23.1474H57.8182L61.1207 8.81854H66.9375L60.5987 30.6367H55.517L51.5859 17.4052H51.4155L47.4844 30.6367H42.4134ZM70.7126 30.9137C69.6686 30.9137 68.7418 30.7397 67.9321 30.3917C67.1295 30.0366 66.4939 29.5039 66.0251 28.7937C65.5635 28.0763 65.3327 27.1779 65.3327 26.0984C65.3327 25.1893 65.4925 24.4222 65.8121 23.7972C66.1317 23.1722 66.572 22.6644 67.1331 22.2738C67.6942 21.8832 68.3405 21.5884 69.072 21.3896C69.8036 21.1836 70.5848 21.0451 71.4158 20.9741C72.3462 20.8888 73.0955 20.8001 73.6636 20.7077C74.2318 20.6083 74.6437 20.4698 74.8994 20.2923C75.1622 20.1076 75.2936 19.8484 75.2936 19.5146V19.4613C75.2936 18.9144 75.1054 18.4918 74.729 18.1935C74.3526 17.8952 73.8447 17.7461 73.2055 17.7461C72.5166 17.7461 71.9626 17.8952 71.5436 18.1935C71.1246 18.4918 70.8582 18.9038 70.7446 19.4293L65.9399 19.2589C66.082 18.2646 66.4477 17.3768 67.0372 16.5955C67.6338 15.8072 68.4506 15.1893 69.4875 14.7418C70.5315 14.2873 71.7851 14.06 73.2482 14.06C74.2922 14.06 75.2545 14.1843 76.1352 14.4329C77.0159 14.6744 77.783 15.0295 78.4364 15.4982C79.0898 15.9599 79.594 16.5281 79.9491 17.2028C80.3114 17.8775 80.4925 18.6481 80.4925 19.5146V30.6367H75.5919V28.3569H75.4641C75.1729 28.9109 74.8 29.3796 74.3455 29.7631C73.898 30.1467 73.3689 30.4343 72.7581 30.6261C72.1544 30.8178 71.4726 30.9137 70.7126 30.9137ZM72.3213 27.5046C72.8824 27.5046 73.3866 27.391 73.8341 27.1637C74.2886 26.9364 74.6509 26.6239 74.9207 26.2262C75.1906 25.8214 75.3256 25.3526 75.3256 24.82V23.2646C75.1764 23.3427 74.9953 23.4137 74.7822 23.4776C74.5763 23.5415 74.349 23.6019 74.1004 23.6587C73.8518 23.7156 73.5962 23.7653 73.3334 23.8079C73.0706 23.8505 72.8185 23.8896 72.577 23.9251C72.0869 24.0032 71.6679 24.1239 71.3199 24.2873C70.979 24.4506 70.7162 24.6637 70.5315 24.9265C70.354 25.1822 70.2652 25.4876 70.2652 25.8427C70.2652 26.3825 70.457 26.7944 70.8405 27.0785C71.2311 27.3626 71.7247 27.5046 72.3213 27.5046ZM82.4778 30.6367V14.2731H87.5382V17.256H87.7087C88.007 16.1765 88.4935 15.3739 89.1682 14.8484C89.8429 14.3157 90.6277 14.0494 91.5226 14.0494C91.7641 14.0494 92.0126 14.0671 92.2683 14.1026C92.524 14.131 92.7619 14.1772 92.9821 14.2411V18.7688C92.7335 18.6836 92.4068 18.6161 92.002 18.5664C91.6043 18.5167 91.2491 18.4918 90.9366 18.4918C90.3187 18.4918 89.7612 18.6303 89.2641 18.9073C88.774 19.1772 88.3869 19.5572 88.1028 20.0472C87.8259 20.5302 87.6874 21.0984 87.6874 21.7518V30.6367H82.4778ZM97.9025 30.9137C96.8585 30.9137 95.9316 30.7397 95.1219 30.3917C94.3194 30.0366 93.6837 29.5039 93.215 28.7937C92.7533 28.0763 92.5225 27.1779 92.5225 26.0984C92.5225 25.1893 92.6823 24.4222 93.0019 23.7972C93.3215 23.1722 93.7619 22.6644 94.3229 22.2738C94.884 21.8832 95.5303 21.5884 96.2619 21.3896C96.9934 21.1836 97.7746 21.0451 98.6056 20.9741C99.536 20.8888 100.285 20.8001 100.853 20.7077C101.422 20.6083 101.834 20.4698 102.089 20.2923C102.352 20.1076 102.483 19.8484 102.483 19.5146V19.4613C102.483 18.9144 102.295 18.4918 101.919 18.1935C101.542 17.8952 101.035 17.7461 100.395 17.7461C99.7065 17.7461 99.1525 17.8952 98.7335 18.1935C98.3144 18.4918 98.0481 18.9038 97.9344 19.4293L93.1298 19.2589C93.2718 18.2646 93.6376 17.3768 94.2271 16.5955C94.8237 15.8072 95.6404 15.1893 96.6773 14.7418C97.7214 14.2873 98.9749 14.06 100.438 14.06C101.482 14.06 102.444 14.1843 103.325 14.4329C104.206 14.6744 104.973 15.0295 105.626 15.4982C106.28 15.9599 106.784 16.5281 107.139 17.2028C107.501 17.8775 107.682 18.6481 107.682 19.5146V30.6367H102.782V28.3569H102.654C102.363 28.9109 101.99 29.3796 101.535 29.7631C101.088 30.1467 100.559 30.4343 99.9479 30.6261C99.3442 30.8178 98.6624 30.9137 97.9025 30.9137ZM99.5112 27.5046C100.072 27.5046 100.576 27.391 101.024 27.1637C101.478 26.9364 101.841 26.6239 102.111 26.2262C102.38 25.8214 102.515 25.3526 102.515 24.82V23.2646C102.366 23.3427 102.185 23.4137 101.972 23.4776C101.766 23.5415 101.539 23.6019 101.29 23.6587C101.042 23.7156 100.786 23.7653 100.523 23.8079C100.26 23.8505 100.008 23.8896 99.7668 23.9251C99.2768 24.0032 98.8577 24.1239 98.5097 24.2873C98.1688 24.4506 97.906 24.6637 97.7214 24.9265C97.5438 25.1822 97.455 25.4876 97.455 25.8427C97.455 26.3825 97.6468 26.7944 98.0303 27.0785C98.421 27.3626 98.9146 27.5046 99.5112 27.5046ZM109.668 36.7731V14.2731H114.824V17.0749H114.984C115.197 16.5778 115.499 16.0984 115.889 15.6367C116.287 15.1751 116.791 14.7987 117.402 14.5075C118.02 14.2092 118.759 14.06 119.618 14.06C120.754 14.06 121.816 14.3583 122.803 14.9549C123.798 15.5515 124.6 16.4712 125.211 17.7141C125.822 18.957 126.127 20.5408 126.127 22.4656C126.127 24.3192 125.832 25.8711 125.243 27.1211C124.661 28.3711 123.872 29.3086 122.878 29.9336C121.891 30.5586 120.793 30.8711 119.586 30.8711C118.762 30.8711 118.048 30.7362 117.445 30.4663C116.841 30.1964 116.333 29.8413 115.921 29.4009C115.516 28.9606 115.204 28.4883 114.984 27.984H114.877V36.7731H109.668ZM114.771 22.4549C114.771 23.3356 114.888 24.1026 115.122 24.756C115.364 25.4094 115.708 25.9173 116.156 26.2795C116.61 26.6346 117.153 26.8121 117.786 26.8121C118.425 26.8121 118.968 26.6346 119.416 26.2795C119.863 25.9173 120.2 25.4094 120.428 24.756C120.662 24.1026 120.779 23.3356 120.779 22.4549C120.779 21.5742 120.662 20.8107 120.428 20.1644C120.2 19.5181 119.863 19.0174 119.416 18.6623C118.975 18.3072 118.432 18.1296 117.786 18.1296C117.146 18.1296 116.603 18.3036 116.156 18.6516C115.708 18.9996 115.364 19.4968 115.122 20.1431C114.888 20.7894 114.771 21.56 114.771 22.4549Z" fill="#111827"/>
<path d="M4.53146 17.6368L14.9794 17.5281L22.5311 30.636L11.5307 30.6368L4.53146 17.6368Z" fill="#22C55E"/>
<path d="M35.0326 8.6377L24.0318 8.63852L11.5316 30.6384L22.3798 30.6379L35.0326 8.6377Z" fill="#111827"/>
</svg>
