<svg width="180" height="40" viewBox="0 0 180 40" fill="none" xmlns="http://www.w3.org/2000/svg">
<path d="M15.91 32.3C14.41 32.3 13.02 32.03 11.74 31.49C10.46 30.93 9.34 30.16 8.38 29.18C7.44 28.2 6.71 27.06 6.19 25.76C5.67 24.46 5.41 23.07 5.41 21.59C5.41 20.09 5.67 18.69 6.19 17.39C6.71 16.09 7.44 14.96 8.38 14C9.34 13.02 10.45 12.26 11.71 11.72C12.99 11.16 14.38 10.88 15.88 10.88C17.52 10.88 18.96 11.16 20.2 11.72C21.44 12.28 22.54 13.04 23.5 14L21.55 15.95C20.89 15.21 20.08 14.63 19.12 14.21C18.18 13.79 17.1 13.58 15.88 13.58C14.78 13.58 13.77 13.78 12.85 14.18C11.93 14.56 11.13 15.11 10.45 15.83C9.77 16.55 9.24 17.4 8.86 18.38C8.5 19.36 8.32 20.43 8.32 21.59C8.32 22.75 8.5 23.82 8.86 24.8C9.24 25.78 9.77 26.63 10.45 27.35C11.13 28.07 11.93 28.63 12.85 29.03C13.77 29.41 14.78 29.6 15.88 29.6C17.18 29.6 18.31 29.39 19.27 28.97C20.23 28.53 21.04 27.94 21.7 27.2L23.65 29.12C22.69 30.12 21.56 30.9 20.26 31.46C18.98 32.02 17.53 32.3 15.91 32.3ZM29.4962 32.3C28.1962 32.3 27.0162 31.98 25.9562 31.34C24.8962 30.68 24.0562 29.79 23.4362 28.67C22.8362 27.55 22.5362 26.29 22.5362 24.89C22.5362 23.49 22.8362 22.23 23.4362 21.11C24.0562 19.99 24.8862 19.1 25.9262 18.44C26.9862 17.78 28.1762 17.45 29.4962 17.45C30.5762 17.45 31.5362 17.68 32.3762 18.14C33.2362 18.58 33.9262 19.2 34.4463 20C34.9662 20.78 35.2562 21.69 35.3162 22.73V27.02C35.2562 28.04 34.9662 28.95 34.4463 29.75C33.9462 30.55 33.2662 31.18 32.4062 31.64C31.5662 32.08 30.5962 32.3 29.4962 32.3ZM29.9462 29.75C31.2862 29.75 32.3663 29.3 33.1863 28.4C34.0062 27.48 34.4162 26.31 34.4162 24.89C34.4162 23.91 34.2262 23.06 33.8462 22.34C33.4862 21.6 32.9662 21.03 32.2863 20.63C31.6062 20.21 30.8162 20 29.9162 20C29.0162 20 28.2162 20.21 27.5162 20.63C26.8362 21.05 26.2962 21.63 25.8962 22.37C25.5162 23.09 25.3262 23.92 25.3262 24.86C25.3262 25.82 25.5162 26.67 25.8962 27.41C26.2962 28.13 26.8462 28.7 27.5462 29.12C28.2462 29.54 29.0462 29.75 29.9462 29.75ZM34.2363 32V28.16L34.7462 24.68L34.2363 21.23V17.75H36.9662V32H34.2363ZM38.1972 32V17.75H40.8972V32H38.1972ZM47.8272 32V23.39C47.8272 22.33 47.4972 21.5 46.8372 20.9C46.1972 20.28 45.3872 19.97 44.4072 19.97C43.7472 19.97 43.1572 20.11 42.6372 20.39C42.1172 20.67 41.6972 21.06 41.3772 21.56C41.0572 22.06 40.8972 22.66 40.8972 23.36L39.7872 22.82C39.7872 21.74 40.0172 20.8 40.4772 20C40.9572 19.2 41.6072 18.58 42.4272 18.14C43.2472 17.68 44.1672 17.45 45.1872 17.45C46.1872 17.45 47.0872 17.67 47.8872 18.11C48.7072 18.55 49.3472 19.17 49.8072 19.97C50.2872 20.77 50.5272 21.72 50.5272 22.82V32H47.8272ZM57.4572 32V23.39C57.4572 22.33 57.1272 21.5 56.4672 20.9C55.8272 20.28 55.0272 19.97 54.0672 19.97C53.4072 19.97 52.8072 20.11 52.2672 20.39C51.7472 20.67 51.3272 21.06 51.0072 21.56C50.6872 22.06 50.5272 22.66 50.5272 23.36L48.9972 22.82C49.0572 21.72 49.3472 20.78 49.8672 20C50.4072 19.2 51.0972 18.58 51.9372 18.14C52.7772 17.68 53.6972 17.45 54.6972 17.45C55.7372 17.45 56.6672 17.67 57.4872 18.11C58.3072 18.55 58.9572 19.17 59.4372 19.97C59.9372 20.77 60.1872 21.73 60.1872 22.85V32H57.4572Z" fill="#1A1714"/>
<path d="M97.58 33.3C96.16 33.3 94.88 32.98 93.74 32.34C92.6 31.68 91.7 30.79 91.04 29.67C90.38 28.55 90.05 27.28 90.05 25.86C90.05 24.46 90.37 23.2 91.01 22.08C91.67 20.96 92.55 20.08 93.65 19.44C94.77 18.78 96.02 18.45 97.4 18.45C98.72 18.45 99.88 18.75 100.88 19.35C101.9 19.95 102.69 20.78 103.25 21.84C103.83 22.9 104.12 24.1 104.12 25.44C104.12 25.64 104.11 25.86 104.09 26.1C104.07 26.32 104.03 26.58 103.97 26.88H91.94V24.63H102.53L101.54 25.5C101.54 24.54 101.37 23.73 101.03 23.07C100.69 22.39 100.21 21.87 99.59 21.51C98.97 21.13 98.22 20.94 97.34 20.94C96.42 20.94 95.61 21.14 94.91 21.54C94.21 21.94 93.67 22.5 93.29 23.22C92.91 23.94 92.72 24.79 92.72 25.77C92.72 26.77 92.92 27.65 93.32 28.41C93.72 29.15 94.29 29.73 95.03 30.15C95.77 30.55 96.62 30.75 97.58 30.75C98.38 30.75 99.11 30.61 99.77 30.33C100.45 30.05 101.03 29.63 101.51 29.07L103.25 30.84C102.57 31.64 101.73 32.25 100.73 32.67C99.75 33.09 98.7 33.3 97.58 33.3ZM104.364 33V18.75H107.064V33H104.364ZM107.064 24.87L106.044 24.42C106.044 22.6 106.464 21.15 107.304 20.07C108.144 18.99 109.354 18.45 110.934 18.45C111.654 18.45 112.304 18.58 112.884 18.84C113.464 19.08 114.004 19.49 114.504 20.07L112.734 21.9C112.434 21.58 112.104 21.35 111.744 21.21C111.384 21.07 110.964 21 110.484 21C109.484 21 108.664 21.32 108.024 21.96C107.384 22.6 107.064 23.57 107.064 24.87ZM118.331 33L111.791 18.75H114.791L120.041 30.78H118.301L123.581 18.75H126.461L119.921 33H118.331ZM126.094 33V18.75H128.794V33H126.094ZM127.444 15.9C126.944 15.9 126.534 15.74 126.214 15.42C125.894 15.08 125.734 14.66 125.734 14.16C125.734 13.68 125.894 13.28 126.214 12.96C126.534 12.62 126.944 12.45 127.444 12.45C127.944 12.45 128.354 12.62 128.674 12.96C128.994 13.28 129.154 13.68 129.154 14.16C129.154 14.66 128.994 15.08 128.674 15.42C128.354 15.74 127.944 15.9 127.444 15.9ZM136.583 33.3C135.183 33.3 133.913 32.97 132.773 32.31C131.653 31.65 130.763 30.76 130.103 29.64C129.463 28.5 129.143 27.24 129.143 25.86C129.143 24.46 129.463 23.2 130.103 22.08C130.763 20.96 131.653 20.08 132.773 19.44C133.913 18.78 135.183 18.45 136.583 18.45C137.683 18.45 138.703 18.66 139.643 19.08C140.583 19.48 141.393 20.07 142.073 20.85L140.273 22.65C139.833 22.13 139.293 21.74 138.653 21.48C138.033 21.2 137.343 21.06 136.583 21.06C135.683 21.06 134.883 21.27 134.183 21.69C133.483 22.09 132.933 22.65 132.533 23.37C132.133 24.09 131.933 24.92 131.933 25.86C131.933 26.8 132.133 27.63 132.533 28.35C132.933 29.07 133.483 29.64 134.183 30.06C134.883 30.48 135.683 30.69 136.583 30.69C137.343 30.69 138.033 30.56 138.653 30.3C139.293 30.02 139.843 29.62 140.303 29.1L142.073 30.9C141.413 31.66 140.603 32.25 139.643 32.67C138.703 33.09 137.683 33.3 136.583 33.3ZM148.357 33.3C146.937 33.3 145.657 32.98 144.517 32.34C143.377 31.68 142.477 30.79 141.817 29.67C141.157 28.55 140.827 27.28 140.827 25.86C140.827 24.46 141.147 23.2 141.787 22.08C142.447 20.96 143.327 20.08 144.427 19.44C145.547 18.78 146.797 18.45 148.177 18.45C149.497 18.45 150.657 18.75 151.657 19.35C152.677 19.95 153.467 20.78 154.027 21.84C154.607 22.9 154.897 24.1 154.897 25.44C154.897 25.64 154.887 25.86 154.867 26.1C154.847 26.32 154.807 26.58 154.747 26.88H142.717V24.63H153.307L152.317 25.5C152.317 24.54 152.147 23.73 151.807 23.07C151.467 22.39 150.987 21.87 150.367 21.51C149.747 21.13 148.997 20.94 148.117 20.94C147.197 20.94 146.387 21.14 145.687 21.54C144.987 21.94 144.447 22.5 144.067 23.22C143.687 23.94 143.497 24.79 143.497 25.77C143.497 26.77 143.697 27.65 144.097 28.41C144.497 29.15 145.067 29.73 145.807 30.15C146.547 30.55 147.397 30.75 148.357 30.75C149.157 30.75 149.887 30.61 150.547 30.33C151.227 30.05 151.807 29.63 152.287 29.07L154.027 30.84C153.347 31.64 152.507 32.25 151.507 32.67C150.527 33.09 149.477 33.3 148.357 33.3ZM159.671 33.3C158.871 33.3 158.111 33.2 157.391 33C156.691 32.78 156.041 32.48 155.441 32.1C154.841 31.7 154.321 31.23 153.881 30.69L155.621 28.95C156.141 29.59 156.741 30.07 157.421 30.39C158.101 30.69 158.861 30.84 159.701 30.84C160.541 30.84 161.191 30.7 161.651 30.42C162.111 30.12 162.341 29.71 162.341 29.19C162.341 28.67 162.151 28.27 161.771 27.99C161.411 27.69 160.941 27.45 160.361 27.27C159.781 27.07 159.161 26.88 158.501 26.7C157.861 26.5 157.251 26.25 156.671 25.95C156.091 25.65 155.611 25.24 155.231 24.72C154.871 24.2 154.691 23.51 154.691 22.65C154.691 21.79 154.901 21.05 155.321 20.43C155.741 19.79 156.321 19.3 157.061 18.96C157.821 18.62 158.731 18.45 159.791 18.45C160.911 18.45 161.901 18.65 162.761 19.05C163.641 19.43 164.361 20.01 164.921 20.79L163.181 22.53C162.781 22.01 162.281 21.61 161.681 21.33C161.101 21.05 160.441 20.91 159.701 20.91C158.921 20.91 158.321 21.05 157.901 21.33C157.501 21.59 157.301 21.96 157.301 22.44C157.301 22.92 157.481 23.29 157.841 23.55C158.201 23.81 158.671 24.03 159.251 24.21C159.851 24.39 160.471 24.58 161.111 24.78C161.751 24.96 162.361 25.21 162.941 25.53C163.521 25.85 163.991 26.28 164.351 26.82C164.731 27.36 164.921 28.07 164.921 28.95C164.921 30.29 164.441 31.35 163.481 32.13C162.541 32.91 161.271 33.3 159.671 33.3Z" fill="#1A1714"/>
<path d="M67.2 38.84C66.2 38.84 65.44 38.62 64.92 38.18C64.44 37.74 64.2 37.14 64.2 36.38C64.2 35.66 64.42 34.88 64.86 34.04C65.3 33.2 65.92 32.42 66.72 31.7C66.96 31.5 67.16 31.38 67.32 31.34C67.44 31.34 67.54 31.38 67.62 31.46C67.66 31.5 67.68 31.58 67.68 31.7C67.68 31.98 67.5 32.3 67.14 32.66C66.02 33.82 65.46 34.8 65.46 35.6C65.46 36.04 65.66 36.44 66.06 36.8C66.46 37.16 66.92 37.32 67.44 37.28C69.44 37.2 71.5 36.76 73.62 35.96C75.74 35.16 77.72 34.06 79.56 32.66C81.4 31.22 82.92 29.58 84.12 27.74C85 26.46 85.44 25.34 85.44 24.38C85.44 23.14 84.64 22.52 83.04 22.52C82.76 22.52 82.44 22.56 82.08 22.64C81.72 22.68 81.32 22.74 80.88 22.82L77.88 23.48C75.44 24 73.28 24.46 71.4 24.86C69.52 25.22 67.84 25.4 66.36 25.4C64.64 25.4 63.3 25.14 62.34 24.62C61.42 24.06 60.96 23.12 60.96 21.8C60.96 21.2 61.08 20.48 61.32 19.64C62.12 17 64.26 14.2 67.74 11.24C70.1 9.24 72.74 7.46 75.66 5.9C78.58 4.3 81.52 3.04 84.48 2.12C87.48 1.16 90.28 0.679998 92.88 0.679998C94.88 0.679998 96.46 1.12 97.62 2C98.82 2.88 99.42 4.08 99.42 5.6C99.42 7 98.92 8.5 97.92 10.1C97.64 10.5 97.4 10.7 97.2 10.7C97.12 10.7 97.04 10.64 96.96 10.52C96.88 10.36 96.84 10.2 96.84 10.04C96.84 10 96.84 9.94 96.84 9.86C96.88 9.74 96.92 9.6 96.96 9.44C97.28 8.48 97.44 7.56 97.44 6.68C97.44 5.32 96.96 4.3 96 3.62C95.08 2.94 93.74 2.68 91.98 2.84C88.9 3.16 85.38 4.14 81.42 5.78C78.74 6.9 76.2 8.22 73.8 9.74C71.44 11.26 69.4 12.88 67.68 14.6C66 16.28 64.84 17.98 64.2 19.7C64.04 20.02 63.96 20.4 63.96 20.84C63.96 22.44 65.54 23.24 68.7 23.24C70.22 23.24 71.88 23.08 73.68 22.76C75.52 22.44 77.64 22.04 80.04 21.56L82.14 21.14C82.86 21.02 83.56 20.96 84.24 20.96C85.52 20.96 86.54 21.22 87.3 21.74C88.06 22.26 88.44 22.98 88.44 23.9C88.44 24.74 88.08 25.74 87.36 26.9C86.68 27.98 85.88 29.02 84.96 30.02C84.04 30.98 83.02 31.92 81.9 32.84C79.62 34.68 77.18 36.14 74.58 37.22C71.98 38.3 69.52 38.84 67.2 38.84Z" fill="#C4943E"/>
</svg>
