<svg width="152" height="40" viewBox="0 0 152 40" fill="none" xmlns="http://www.w3.org/2000/svg">
<g clip-path="url(#clip0_3276_3)">
<path d="M29.5149 10.6364V14.0455H19.6605V10.6364H29.5149ZM21.8977 6.71591H26.4361V21.9716C26.4361 22.3906 26.5 22.7173 26.6278 22.9517C26.7557 23.179 26.9332 23.3388 27.1605 23.4311C27.3949 23.5234 27.6648 23.5696 27.9702 23.5696C28.1832 23.5696 28.3963 23.5518 28.6094 23.5163C28.8224 23.4737 28.9858 23.4418 29.0994 23.4205L29.8132 26.7976C29.5859 26.8686 29.2663 26.9503 28.8544 27.0426C28.4425 27.142 27.9418 27.2024 27.3523 27.2237C26.2585 27.2663 25.2997 27.1207 24.4759 26.7869C23.6591 26.4531 23.0234 25.9347 22.5689 25.2315C22.1143 24.5284 21.8906 23.6406 21.8977 22.5682V6.71591ZM30.9712 27V10.6364H35.3711V13.4915H35.5415C35.8398 12.4759 36.3406 11.7088 37.0437 11.1903C37.7468 10.6648 38.5565 10.402 39.4727 10.402C39.6999 10.402 39.945 10.4162 40.2077 10.4446C40.4705 10.473 40.7013 10.5121 40.9002 10.5618V14.5888C40.6871 14.5249 40.3924 14.468 40.016 14.4183C39.6396 14.3686 39.2951 14.3438 38.9826 14.3438C38.315 14.3438 37.7184 14.4893 37.1928 14.7805C36.6744 15.0646 36.2624 15.4624 35.957 15.9737C35.6587 16.4851 35.5096 17.0746 35.5096 17.7422V27H30.9712ZM45.9441 27.3089C44.9 27.3089 43.9696 27.1278 43.1529 26.7656C42.3361 26.3963 41.6898 25.853 41.214 25.1357C40.7452 24.4112 40.5108 23.5092 40.5108 22.4297C40.5108 21.5206 40.6777 20.7571 41.0115 20.1392C41.3453 19.5213 41.7999 19.0241 42.3752 18.6477C42.9505 18.2713 43.6039 17.9872 44.3354 17.7955C45.074 17.6037 45.8482 17.4688 46.6578 17.3906C47.6096 17.2912 48.3766 17.1989 48.959 17.1136C49.5414 17.0213 49.964 16.8864 50.2267 16.7088C50.4895 16.5312 50.6209 16.2685 50.6209 15.9205V15.8565C50.6209 15.1818 50.4078 14.6598 49.9817 14.2905C49.5627 13.9212 48.9661 13.7365 48.1919 13.7365C47.3752 13.7365 46.7253 13.9176 46.2424 14.2798C45.7594 14.6349 45.4398 15.0824 45.2836 15.6222L41.0861 15.2812C41.2992 14.2869 41.7182 13.4276 42.3432 12.7031C42.9682 11.9716 43.7743 11.4105 44.7615 11.0199C45.7559 10.6222 46.9064 10.4233 48.2132 10.4233C49.1223 10.4233 49.9924 10.5298 50.8233 10.7429C51.6614 10.956 52.4036 11.2862 53.0499 11.7337C53.7033 12.1811 54.2182 12.7564 54.5946 13.4595C54.9711 14.1555 55.1593 14.9901 55.1593 15.9631V27H50.8553V24.7308H50.7275C50.4647 25.2422 50.1131 25.6932 49.6728 26.0838C49.2324 26.4673 48.7033 26.7692 48.0854 26.9893C47.4675 27.2024 46.7537 27.3089 45.9441 27.3089ZM47.2438 24.1768C47.9114 24.1768 48.5009 24.0455 49.0123 23.7827C49.5236 23.5128 49.9249 23.1506 50.2161 22.696C50.5073 22.2415 50.6529 21.7266 50.6529 21.1513V19.4148C50.5108 19.5071 50.3155 19.5923 50.0669 19.6705C49.8255 19.7415 49.552 19.8089 49.2466 19.8729C48.9412 19.9297 48.6358 19.983 48.3304 20.0327C48.025 20.0753 47.748 20.1143 47.4995 20.1499C46.9668 20.228 46.5016 20.3523 46.1039 20.5227C45.7061 20.6932 45.3972 20.924 45.177 21.2152C44.9569 21.4993 44.8468 21.8544 44.8468 22.2805C44.8468 22.8984 45.0705 23.3707 45.5179 23.6974C45.9725 24.017 46.5478 24.1768 47.2438 24.1768ZM71.85 10.6364L66.1291 27H61.0154L55.2946 10.6364H60.0886L63.487 22.3445H63.6575L67.0453 10.6364H71.85ZM76.8991 27.3089C75.8551 27.3089 74.9247 27.1278 74.108 26.7656C73.2912 26.3963 72.6449 25.853 72.169 25.1357C71.7003 24.4112 71.4659 23.5092 71.4659 22.4297C71.4659 21.5206 71.6328 20.7571 71.9666 20.1392C72.3004 19.5213 72.755 19.0241 73.3303 18.6477C73.9055 18.2713 74.5589 17.9872 75.2905 17.7955C76.0291 17.6037 76.8033 17.4688 77.6129 17.3906C78.5646 17.2912 79.3317 17.1989 79.9141 17.1136C80.4964 17.0213 80.919 16.8864 81.1818 16.7088C81.4446 16.5312 81.576 16.2685 81.576 15.9205V15.8565C81.576 15.1818 81.3629 14.6598 80.9368 14.2905C80.5178 13.9212 79.9212 13.7365 79.147 13.7365C78.3303 13.7365 77.6804 13.9176 77.1974 14.2798C76.7145 14.6349 76.3949 15.0824 76.2386 15.6222L72.0412 15.2812C72.2543 14.2869 72.6733 13.4276 73.2983 12.7031C73.9233 11.9716 74.7294 11.4105 75.7166 11.0199C76.7109 10.6222 77.8615 10.4233 79.1683 10.4233C80.0774 10.4233 80.9474 10.5298 81.7784 10.7429C82.6165 10.956 83.3587 11.2862 84.005 11.7337C84.6584 12.1811 85.1733 12.7564 85.5497 13.4595C85.9261 14.1555 86.1143 14.9901 86.1143 15.9631V27H81.8104V24.7308H81.6825C81.4197 25.2422 81.0682 25.6932 80.6278 26.0838C80.1875 26.4673 79.6584 26.7692 79.0405 26.9893C78.4226 27.2024 77.7088 27.3089 76.8991 27.3089ZM78.1989 24.1768C78.8665 24.1768 79.456 24.0455 79.9673 23.7827C80.4787 23.5128 80.88 23.1506 81.1712 22.696C81.4624 22.2415 81.608 21.7266 81.608 21.1513V19.4148C81.4659 19.5071 81.2706 19.5923 81.022 19.6705C80.7805 19.7415 80.5071 19.8089 80.2017 19.8729C79.8963 19.9297 79.5909 19.983 79.2855 20.0327C78.9801 20.0753 78.7031 20.1143 78.4545 20.1499C77.9219 20.228 77.4567 20.3523 77.0589 20.5227C76.6612 20.6932 76.3523 20.924 76.1321 21.2152C75.9119 21.4993 75.8018 21.8544 75.8018 22.2805C75.8018 22.8984 76.0256 23.3707 76.473 23.6974C76.9276 24.017 77.5028 24.1768 78.1989 24.1768ZM88.1353 27V10.6364H92.6737V27H88.1353ZM90.4151 8.52699C89.7404 8.52699 89.1616 8.30327 88.6786 7.85582C88.2028 7.40128 87.9648 6.85795 87.9648 6.22585C87.9648 5.60085 88.2028 5.06463 88.6786 4.61719C89.1616 4.16264 89.7404 3.93537 90.4151 3.93537C91.0898 3.93537 91.6651 4.16264 92.141 4.61719C92.6239 5.06463 92.8654 5.60085 92.8654 6.22585C92.8654 6.85795 92.6239 7.40128 92.141 7.85582C91.6651 8.30327 91.0898 8.52699 90.4151 8.52699ZM99.3475 5.18182V27H94.8091V5.18182H99.3475Z" fill="#111827"/>
<path d="M31.0398 31H30.5114C30.4801 30.848 30.4254 30.7145 30.3473 30.5994C30.2706 30.4844 30.1768 30.3878 30.0661 30.3097C29.9567 30.2301 29.8352 30.1705 29.7017 30.1307C29.5682 30.0909 29.429 30.071 29.2841 30.071C29.0199 30.071 28.7805 30.1378 28.5661 30.2713C28.353 30.4048 28.1832 30.6016 28.0568 30.8615C27.9318 31.1214 27.8693 31.4403 27.8693 31.8182C27.8693 32.196 27.9318 32.5149 28.0568 32.7749C28.1832 33.0348 28.353 33.2315 28.5661 33.3651C28.7805 33.4986 29.0199 33.5653 29.2841 33.5653C29.429 33.5653 29.5682 33.5455 29.7017 33.5057C29.8352 33.4659 29.9567 33.407 30.0661 33.3288C30.1768 33.2493 30.2706 33.152 30.3473 33.0369C30.4254 32.9205 30.4801 32.7869 30.5114 32.6364H31.0398C31 32.8594 30.9276 33.0589 30.8224 33.2351C30.7173 33.4112 30.5866 33.5611 30.4304 33.6847C30.2741 33.8068 30.0987 33.8999 29.9041 33.9638C29.7109 34.0277 29.5043 34.0597 29.2841 34.0597C28.9119 34.0597 28.581 33.9688 28.2912 33.7869C28.0014 33.6051 27.7734 33.3466 27.6072 33.0114C27.4411 32.6761 27.358 32.2784 27.358 31.8182C27.358 31.358 27.4411 30.9602 27.6072 30.625C27.7734 30.2898 28.0014 30.0312 28.2912 29.8494C28.581 29.6676 28.9119 29.5767 29.2841 29.5767C29.5043 29.5767 29.7109 29.6087 29.9041 29.6726C30.0987 29.7365 30.2741 29.8303 30.4304 29.9538C30.5866 30.076 30.7173 30.2251 30.8224 30.4013C30.9276 30.576 31 30.7756 31.0398 31ZM32.3283 32.0312V34H31.8255V29.6364H32.3283V31.2386H32.3709C32.4476 31.0696 32.5627 30.9354 32.7161 30.8359C32.8709 30.7351 33.0769 30.6847 33.334 30.6847C33.557 30.6847 33.7523 30.7294 33.9199 30.8189C34.0875 30.907 34.2175 31.0426 34.3098 31.2259C34.4036 31.4077 34.4505 31.6392 34.4505 31.9205V34H33.9476V31.9545C33.9476 31.6946 33.8801 31.4936 33.7452 31.3516C33.6117 31.2081 33.4263 31.1364 33.1891 31.1364C33.0243 31.1364 32.8766 31.1712 32.7459 31.2408C32.6167 31.3104 32.5144 31.4119 32.4391 31.5455C32.3652 31.679 32.3283 31.8409 32.3283 32.0312ZM36.3335 34.0767C36.1261 34.0767 35.9379 34.0376 35.7688 33.9595C35.5998 33.88 35.4656 33.7656 35.3661 33.6165C35.2667 33.4659 35.217 33.2841 35.217 33.071C35.217 32.8835 35.2539 32.7315 35.3278 32.6151C35.4016 32.4972 35.5004 32.4048 35.6239 32.3381C35.7475 32.2713 35.8839 32.2216 36.033 32.1889C36.1836 32.1548 36.3349 32.1278 36.4869 32.108C36.6857 32.0824 36.8469 32.0632 36.9705 32.0504C37.0955 32.0362 37.1864 32.0128 37.2433 31.9801C37.3015 31.9474 37.3306 31.8906 37.3306 31.8097V31.7926C37.3306 31.5824 37.2731 31.419 37.158 31.3026C37.0444 31.1861 36.8718 31.1278 36.6403 31.1278C36.4002 31.1278 36.212 31.1804 36.0756 31.2855C35.9393 31.3906 35.8434 31.5028 35.788 31.6222L35.3107 31.4517C35.396 31.2528 35.5096 31.098 35.6516 30.9872C35.7951 30.875 35.9513 30.7969 36.1204 30.7528C36.2908 30.7074 36.4585 30.6847 36.6232 30.6847C36.7283 30.6847 36.8491 30.6974 36.9854 30.723C37.1232 30.7472 37.256 30.7976 37.3839 30.8743C37.5131 30.951 37.6204 31.0668 37.7056 31.2216C37.7908 31.3764 37.8335 31.5838 37.8335 31.8438V34H37.3306V33.5568H37.305C37.271 33.6278 37.2141 33.7038 37.1346 33.7848C37.055 33.8658 36.9492 33.9347 36.8171 33.9915C36.685 34.0483 36.5238 34.0767 36.3335 34.0767ZM36.4102 33.625C36.609 33.625 36.7766 33.5859 36.913 33.5078C37.0508 33.4297 37.1545 33.3288 37.2241 33.2053C37.2951 33.0817 37.3306 32.9517 37.3306 32.8153V32.3551C37.3093 32.3807 37.2624 32.4041 37.19 32.4254C37.119 32.4453 37.0366 32.4631 36.9428 32.4787C36.8505 32.4929 36.7603 32.5057 36.6722 32.517C36.5856 32.527 36.5153 32.5355 36.4613 32.5426C36.3306 32.5597 36.2085 32.5874 36.0948 32.6257C35.9826 32.6626 35.8917 32.7187 35.8221 32.794C35.7539 32.8679 35.7198 32.9687 35.7198 33.0966C35.7198 33.2713 35.7844 33.4034 35.9137 33.4929C36.0444 33.581 36.2099 33.625 36.4102 33.625ZM40.9842 35.2273V33.4972H40.9416C40.9047 33.5568 40.8521 33.6321 40.7839 33.723C40.7157 33.8125 40.6184 33.8928 40.492 33.9638C40.3656 34.0334 40.1973 34.0682 39.987 34.0682C39.7143 34.0682 39.4735 33.9993 39.2647 33.8615C39.0559 33.7223 38.8926 33.5263 38.7747 33.2734C38.6568 33.0192 38.5978 32.7188 38.5978 32.3722C38.5978 32.0284 38.6568 31.7301 38.7747 31.4773C38.8926 31.2244 39.0566 31.0291 39.2669 30.8913C39.4771 30.7536 39.72 30.6847 39.9956 30.6847C40.2086 30.6847 40.377 30.7202 40.5005 30.7912C40.6255 30.8608 40.7207 30.9403 40.786 31.0298C40.8528 31.1179 40.9047 31.1903 40.9416 31.2472H41.0012V30.7273H41.487V35.2273H40.9842ZM40.0552 33.6165C40.2569 33.6165 40.4274 33.5639 40.5666 33.4588C40.7058 33.3523 40.8116 33.2053 40.8841 33.0178C40.9565 32.8288 40.9927 32.6108 40.9927 32.3636C40.9927 32.1193 40.9572 31.9055 40.8862 31.7223C40.8152 31.5376 40.71 31.3942 40.5708 31.2919C40.4316 31.1882 40.2598 31.1364 40.0552 31.1364C39.8422 31.1364 39.6646 31.1911 39.5225 31.3004C39.3819 31.4084 39.2761 31.5554 39.2051 31.7415C39.1355 31.9261 39.1007 32.1335 39.1007 32.3636C39.1007 32.5966 39.1362 32.8082 39.2072 32.9986C39.2797 33.1875 39.3862 33.3381 39.5268 33.4503C39.6689 33.5611 39.845 33.6165 40.0552 33.6165ZM44.47 32.6619V30.7273H44.9728V34H44.47V33.446H44.4359C44.3592 33.6122 44.2399 33.7536 44.0779 33.87C43.916 33.9851 43.7115 34.0426 43.4643 34.0426C43.2598 34.0426 43.0779 33.9979 42.9189 33.9084C42.7598 33.8175 42.6348 33.6811 42.5439 33.4993C42.4529 33.3161 42.4075 33.0852 42.4075 32.8068V30.7273H42.9103V32.7727C42.9103 33.0114 42.9771 33.2017 43.1106 33.3438C43.2456 33.4858 43.4174 33.5568 43.6262 33.5568C43.7512 33.5568 43.8784 33.5249 44.0076 33.4609C44.1383 33.397 44.2477 33.299 44.3358 33.1669C44.4252 33.0348 44.47 32.8665 44.47 32.6619ZM47.266 34.0682C46.9506 34.0682 46.6786 33.9986 46.4499 33.8594C46.2227 33.7188 46.0472 33.5227 45.9237 33.2713C45.8015 33.0185 45.7404 32.7244 45.7404 32.3892C45.7404 32.054 45.8015 31.7585 45.9237 31.5028C46.0472 31.2457 46.2191 31.0455 46.4393 30.902C46.6609 30.7571 46.9194 30.6847 47.2148 30.6847C47.3853 30.6847 47.5536 30.7131 47.7198 30.7699C47.886 30.8267 48.0373 30.919 48.1737 31.0469C48.31 31.1733 48.4187 31.3409 48.4996 31.5497C48.5806 31.7585 48.6211 32.0156 48.6211 32.321V32.5341H46.0984V32.0994H48.1097C48.1097 31.9148 48.0728 31.75 47.9989 31.6051C47.9265 31.4602 47.8228 31.3459 47.6879 31.2621C47.5543 31.1783 47.3967 31.1364 47.2148 31.1364C47.0146 31.1364 46.8413 31.1861 46.695 31.2855C46.5501 31.3835 46.4386 31.5114 46.3604 31.669C46.2823 31.8267 46.2433 31.9957 46.2433 32.1761V32.4659C46.2433 32.7131 46.2859 32.9226 46.3711 33.0945C46.4577 33.2649 46.5778 33.3949 46.7312 33.4844C46.8846 33.5724 47.0629 33.6165 47.266 33.6165C47.3981 33.6165 47.5174 33.598 47.6239 33.5611C47.7319 33.5227 47.8249 33.4659 47.9031 33.3906C47.9812 33.3139 48.0415 33.2187 48.0842 33.1051L48.57 33.2415C48.5188 33.4062 48.4329 33.5511 48.3121 33.6761C48.1914 33.7997 48.0423 33.8963 47.8647 33.9659C47.6871 34.0341 47.4876 34.0682 47.266 34.0682ZM52.4031 34.0682C52.0962 34.0682 51.832 33.9957 51.6104 33.8509C51.3888 33.706 51.2184 33.5064 51.0991 33.2521C50.9798 32.9979 50.9201 32.7074 50.9201 32.3807C50.9201 32.0483 50.9812 31.755 51.1033 31.5007C51.2269 31.245 51.3988 31.0455 51.619 30.902C51.8406 30.7571 52.0991 30.6847 52.3945 30.6847C52.6246 30.6847 52.832 30.7273 53.0167 30.8125C53.2013 30.8977 53.3526 31.017 53.4705 31.1705C53.5884 31.3239 53.6616 31.5028 53.69 31.7074H53.1871C53.1488 31.5582 53.0636 31.4261 52.9315 31.3111C52.8008 31.1946 52.6246 31.1364 52.4031 31.1364C52.207 31.1364 52.0352 31.1875 51.8874 31.2898C51.7411 31.3906 51.6268 31.5334 51.5444 31.718C51.4634 31.9013 51.4229 32.1165 51.4229 32.3636C51.4229 32.6165 51.4627 32.8366 51.5423 33.0241C51.6232 33.2116 51.7369 33.3572 51.8832 33.4609C52.0309 33.5646 52.2042 33.6165 52.4031 33.6165C52.5337 33.6165 52.6523 33.5938 52.7589 33.5483C52.8654 33.5028 52.9556 33.4375 53.0295 33.3523C53.1033 33.267 53.1559 33.1648 53.1871 33.0455H53.69C53.6616 33.2386 53.5913 33.4126 53.479 33.5675C53.3683 33.7209 53.2212 33.843 53.038 33.9339C52.8562 34.0234 52.6445 34.0682 52.4031 34.0682ZM55.7546 34.0682C55.4592 34.0682 55.1999 33.9979 54.9769 33.8572C54.7553 33.7166 54.582 33.5199 54.457 33.267C54.3335 33.0142 54.2717 32.7187 54.2717 32.3807C54.2717 32.0398 54.3335 31.7422 54.457 31.4879C54.582 31.2337 54.7553 31.0362 54.9769 30.8956C55.1999 30.755 55.4592 30.6847 55.7546 30.6847C56.0501 30.6847 56.3086 30.755 56.5302 30.8956C56.7532 31.0362 56.9265 31.2337 57.0501 31.4879C57.1751 31.7422 57.2376 32.0398 57.2376 32.3807C57.2376 32.7187 57.1751 33.0142 57.0501 33.267C56.9265 33.5199 56.7532 33.7166 56.5302 33.8572C56.3086 33.9979 56.0501 34.0682 55.7546 34.0682ZM55.7546 33.6165C55.979 33.6165 56.1637 33.5589 56.3086 33.4439C56.4535 33.3288 56.5607 33.1776 56.6303 32.9901C56.6999 32.8026 56.7347 32.5994 56.7347 32.3807C56.7347 32.1619 56.6999 31.9581 56.6303 31.7692C56.5607 31.5803 56.4535 31.4276 56.3086 31.3111C56.1637 31.1946 55.979 31.1364 55.7546 31.1364C55.5302 31.1364 55.3455 31.1946 55.2006 31.3111C55.0558 31.4276 54.9485 31.5803 54.8789 31.7692C54.8093 31.9581 54.7745 32.1619 54.7745 32.3807C54.7745 32.5994 54.8093 32.8026 54.8789 32.9901C54.9485 33.1776 55.0558 33.3288 55.2006 33.4439C55.3455 33.5589 55.5302 33.6165 55.7546 33.6165ZM58.0051 34V30.7273H58.4909V31.2386H58.5336C58.6017 31.0639 58.7118 30.9283 58.8638 30.8317C59.0158 30.7337 59.1983 30.6847 59.4114 30.6847C59.6273 30.6847 59.807 30.7337 59.9505 30.8317C60.0953 30.9283 60.2083 31.0639 60.2892 31.2386H60.3233C60.4071 31.0696 60.5328 30.9354 60.7005 30.8359C60.8681 30.7351 61.0691 30.6847 61.3034 30.6847C61.5961 30.6847 61.8354 30.7763 62.0215 30.9595C62.2076 31.1413 62.3006 31.4247 62.3006 31.8097V34H61.7978V31.8097C61.7978 31.5682 61.7317 31.3956 61.5996 31.2919C61.4675 31.1882 61.312 31.1364 61.133 31.1364C60.9029 31.1364 60.7246 31.206 60.5982 31.3452C60.4718 31.483 60.4086 31.6577 60.4086 31.8693V34H59.8972V31.7585C59.8972 31.5724 59.8368 31.4226 59.7161 31.3089C59.5953 31.1939 59.4398 31.1364 59.2495 31.1364C59.1188 31.1364 58.9966 31.1712 58.883 31.2408C58.7708 31.3104 58.6799 31.407 58.6103 31.5305C58.5421 31.6527 58.508 31.794 58.508 31.9545V34H58.0051ZM63.22 35.2273V30.7273H63.7058V31.2472H63.7654C63.8024 31.1903 63.8535 31.1179 63.9189 31.0298C63.9856 30.9403 64.0808 30.8608 64.2044 30.7912C64.3294 30.7202 64.4984 30.6847 64.7115 30.6847C64.987 30.6847 65.2299 30.7536 65.4402 30.8913C65.6504 31.0291 65.8145 31.2244 65.9324 31.4773C66.0502 31.7301 66.1092 32.0284 66.1092 32.3722C66.1092 32.7188 66.0502 33.0192 65.9324 33.2734C65.8145 33.5263 65.6511 33.7223 65.4423 33.8615C65.2335 33.9993 64.9927 34.0682 64.72 34.0682C64.5098 34.0682 64.3414 34.0334 64.215 33.9638C64.0886 33.8928 63.9913 33.8125 63.9231 33.723C63.8549 33.6321 63.8024 33.5568 63.7654 33.4972H63.7228V35.2273H63.22ZM63.7143 32.3636C63.7143 32.6108 63.7505 32.8288 63.823 33.0178C63.8954 33.2053 64.0012 33.3523 64.1404 33.4588C64.2797 33.5639 64.4501 33.6165 64.6518 33.6165C64.862 33.6165 65.0375 33.5611 65.1781 33.4503C65.3201 33.3381 65.4267 33.1875 65.4977 32.9986C65.5701 32.8082 65.6064 32.5966 65.6064 32.3636C65.6064 32.1335 65.5708 31.9261 65.4998 31.7415C65.4302 31.5554 65.3244 31.4084 65.1824 31.3004C65.0417 31.1911 64.8649 31.1364 64.6518 31.1364C64.4473 31.1364 64.2754 31.1882 64.1362 31.2919C63.997 31.3942 63.8919 31.5376 63.8208 31.7223C63.7498 31.9055 63.7143 32.1193 63.7143 32.3636ZM68.2484 34.0682C67.9331 34.0682 67.661 33.9986 67.4324 33.8594C67.2051 33.7188 67.0297 33.5227 66.9061 33.2713C66.7839 33.0185 66.7228 32.7244 66.7228 32.3892C66.7228 32.054 66.7839 31.7585 66.9061 31.5028C67.0297 31.2457 67.2015 31.0455 67.4217 30.902C67.6433 30.7571 67.9018 30.6847 68.1973 30.6847C68.3677 30.6847 68.536 30.7131 68.7022 30.7699C68.8684 30.8267 69.0197 30.919 69.1561 31.0469C69.2924 31.1733 69.4011 31.3409 69.4821 31.5497C69.563 31.7585 69.6035 32.0156 69.6035 32.321V32.5341H67.0808V32.0994H69.0922C69.0922 31.9148 69.0552 31.75 68.9814 31.6051C68.9089 31.4602 68.8052 31.3459 68.6703 31.2621C68.5368 31.1783 68.3791 31.1364 68.1973 31.1364C67.997 31.1364 67.8237 31.1861 67.6774 31.2855C67.5325 31.3835 67.421 31.5114 67.3429 31.669C67.2647 31.8267 67.2257 31.9957 67.2257 32.1761V32.4659C67.2257 32.7131 67.2683 32.9226 67.3535 33.0945C67.4402 33.2649 67.5602 33.3949 67.7136 33.4844C67.867 33.5724 68.0453 33.6165 68.2484 33.6165C68.3805 33.6165 68.4998 33.598 68.6064 33.5611C68.7143 33.5227 68.8074 33.4659 68.8855 33.3906C68.9636 33.3139 69.024 33.2187 69.0666 33.1051L69.5524 33.2415C69.5012 33.4062 69.4153 33.5511 69.2946 33.6761C69.1738 33.7997 69.0247 33.8963 68.8471 33.9659C68.6696 34.0341 68.47 34.0682 68.2484 34.0682ZM67.9416 30.2841L68.4615 29.2955H69.0495L68.3848 30.2841H67.9416ZM71.7917 30.7273V31.1534H70.0957V30.7273H71.7917ZM70.59 29.9432H71.0929V33.0625C71.0929 33.2045 71.1135 33.3111 71.1547 33.3821C71.1973 33.4517 71.2512 33.4986 71.3166 33.5227C71.3833 33.5455 71.4537 33.5568 71.5275 33.5568C71.5829 33.5568 71.6284 33.554 71.6639 33.5483C71.6994 33.5412 71.7278 33.5355 71.7491 33.5312L71.8514 33.983C71.8173 33.9957 71.7697 34.0085 71.7086 34.0213C71.6475 34.0355 71.5701 34.0426 71.4764 34.0426C71.3343 34.0426 71.1951 34.0121 71.0588 33.951C70.9238 33.8899 70.8116 33.7969 70.7221 33.6719C70.6341 33.5469 70.59 33.3892 70.59 33.1989V29.9432ZM73.8851 34.0682C73.5698 34.0682 73.2978 33.9986 73.0691 33.8594C72.8418 33.7188 72.6664 33.5227 72.5428 33.2713C72.4206 33.0185 72.3596 32.7244 72.3596 32.3892C72.3596 32.054 72.4206 31.7585 72.5428 31.5028C72.6664 31.2457 72.8382 31.0455 73.0584 30.902C73.28 30.7571 73.5385 30.6847 73.834 30.6847C74.0044 30.6847 74.1728 30.7131 74.339 30.7699C74.5051 30.8267 74.6564 30.919 74.7928 31.0469C74.9292 31.1733 75.0378 31.3409 75.1188 31.5497C75.1998 31.7585 75.2402 32.0156 75.2402 32.321V32.5341H72.7175V32.0994H74.7289C74.7289 31.9148 74.6919 31.75 74.6181 31.6051C74.5456 31.4602 74.4419 31.3459 74.307 31.2621C74.1735 31.1783 74.0158 31.1364 73.834 31.1364C73.6337 31.1364 73.4604 31.1861 73.3141 31.2855C73.1692 31.3835 73.0577 31.5114 72.9796 31.669C72.9015 31.8267 72.8624 31.9957 72.8624 32.1761V32.4659C72.8624 32.7131 72.905 32.9226 72.9902 33.0945C73.0769 33.2649 73.1969 33.3949 73.3503 33.4844C73.5037 33.5724 73.682 33.6165 73.8851 33.6165C74.0172 33.6165 74.1365 33.598 74.2431 33.5611C74.351 33.5227 74.4441 33.4659 74.5222 33.3906C74.6003 33.3139 74.6607 33.2187 74.7033 33.1051L75.1891 33.2415C75.138 33.4062 75.052 33.5511 74.9313 33.6761C74.8105 33.7997 74.6614 33.8963 74.4838 33.9659C74.3063 34.0341 74.1067 34.0682 73.8851 34.0682ZM76.508 32.0312V34H76.0051V30.7273H76.4909V31.2386H76.5336C76.6103 31.0724 76.7267 30.9389 76.883 30.8381C77.0392 30.7358 77.2409 30.6847 77.4881 30.6847C77.7097 30.6847 77.9036 30.7301 78.0698 30.821C78.236 30.9105 78.3652 31.0469 78.4576 31.2301C78.5499 31.4119 78.5961 31.642 78.5961 31.9205V34H78.0932V31.9545C78.0932 31.6974 78.0265 31.4972 77.8929 31.3537C77.7594 31.2088 77.5762 31.1364 77.3432 31.1364C77.1827 31.1364 77.0392 31.1712 76.9128 31.2408C76.7878 31.3104 76.6891 31.4119 76.6167 31.5455C76.5442 31.679 76.508 31.8409 76.508 32.0312ZM80.8445 34.0682C80.5376 34.0682 80.2734 33.9957 80.0518 33.8509C79.8303 33.706 79.6598 33.5064 79.5405 33.2521C79.4212 32.9979 79.3615 32.7074 79.3615 32.3807C79.3615 32.0483 79.4226 31.755 79.5447 31.5007C79.6683 31.245 79.8402 31.0455 80.0604 30.902C80.282 30.7571 80.5405 30.6847 80.8359 30.6847C81.0661 30.6847 81.2734 30.7273 81.4581 30.8125C81.6428 30.8977 81.794 31.017 81.9119 31.1705C82.0298 31.3239 82.103 31.5028 82.1314 31.7074H81.6286C81.5902 31.5582 81.505 31.4261 81.3729 31.3111C81.2422 31.1946 81.0661 31.1364 80.8445 31.1364C80.6484 31.1364 80.4766 31.1875 80.3288 31.2898C80.1825 31.3906 80.0682 31.5334 79.9858 31.718C79.9048 31.9013 79.8643 32.1165 79.8643 32.3636C79.8643 32.6165 79.9041 32.8366 79.9837 33.0241C80.0646 33.2116 80.1783 33.3572 80.3246 33.4609C80.4723 33.5646 80.6456 33.6165 80.8445 33.6165C80.9751 33.6165 81.0938 33.5938 81.2003 33.5483C81.3068 33.5028 81.397 33.4375 81.4709 33.3523C81.5447 33.267 81.5973 33.1648 81.6286 33.0455H82.1314C82.103 33.2386 82.0327 33.4126 81.9205 33.5675C81.8097 33.7209 81.6626 33.843 81.4794 33.9339C81.2976 34.0234 81.0859 34.0682 80.8445 34.0682ZM84.2386 34.0682C83.9233 34.0682 83.6513 33.9986 83.4226 33.8594C83.1953 33.7188 83.0199 33.5227 82.8963 33.2713C82.7741 33.0185 82.7131 32.7244 82.7131 32.3892C82.7131 32.054 82.7741 31.7585 82.8963 31.5028C83.0199 31.2457 83.1918 31.0455 83.4119 30.902C83.6335 30.7571 83.892 30.6847 84.1875 30.6847C84.358 30.6847 84.5263 30.7131 84.6925 30.7699C84.8587 30.8267 85.0099 30.919 85.1463 31.0469C85.2827 31.1733 85.3913 31.3409 85.4723 31.5497C85.5533 31.7585 85.5938 32.0156 85.5938 32.321V32.5341H83.071V32.0994H85.0824C85.0824 31.9148 85.0455 31.75 84.9716 31.6051C84.8991 31.4602 84.7955 31.3459 84.6605 31.2621C84.527 31.1783 84.3693 31.1364 84.1875 31.1364C83.9872 31.1364 83.8139 31.1861 83.6676 31.2855C83.5227 31.3835 83.4112 31.5114 83.3331 31.669C83.255 31.8267 83.2159 31.9957 83.2159 32.1761V32.4659C83.2159 32.7131 83.2585 32.9226 83.3438 33.0945C83.4304 33.2649 83.5504 33.3949 83.7038 33.4844C83.8572 33.5724 84.0355 33.6165 84.2386 33.6165C84.3707 33.6165 84.4901 33.598 84.5966 33.5611C84.7045 33.5227 84.7976 33.4659 84.8757 33.3906C84.9538 33.3139 85.0142 33.2187 85.0568 33.1051L85.5426 33.2415C85.4915 33.4062 85.4055 33.5511 85.2848 33.6761C85.1641 33.7997 85.0149 33.8963 84.8374 33.9659C84.6598 34.0341 84.4602 34.0682 84.2386 34.0682ZM89.0092 34.0767C88.8018 34.0767 88.6136 34.0376 88.4446 33.9595C88.2756 33.88 88.1413 33.7656 88.0419 33.6165C87.9425 33.4659 87.8928 33.2841 87.8928 33.071C87.8928 32.8835 87.9297 32.7315 88.0036 32.6151C88.0774 32.4972 88.1761 32.4048 88.2997 32.3381C88.4233 32.2713 88.5597 32.2216 88.7088 32.1889C88.8594 32.1548 89.0107 32.1278 89.1626 32.108C89.3615 32.0824 89.5227 32.0632 89.6463 32.0504C89.7713 32.0362 89.8622 32.0128 89.919 31.9801C89.9773 31.9474 90.0064 31.8906 90.0064 31.8097V31.7926C90.0064 31.5824 89.9489 31.419 89.8338 31.3026C89.7202 31.1861 89.5476 31.1278 89.3161 31.1278C89.076 31.1278 88.8878 31.1804 88.7514 31.2855C88.6151 31.3906 88.5192 31.5028 88.4638 31.6222L87.9865 31.4517C88.0717 31.2528 88.1854 31.098 88.3274 30.9872C88.4709 30.875 88.6271 30.7969 88.7962 30.7528C88.9666 30.7074 89.1342 30.6847 89.299 30.6847C89.4041 30.6847 89.5249 30.6974 89.6612 30.723C89.799 30.7472 89.9318 30.7976 90.0597 30.8743C90.1889 30.951 90.2962 31.0668 90.3814 31.2216C90.4666 31.3764 90.5092 31.5838 90.5092 31.8438V34H90.0064V33.5568H89.9808C89.9467 33.6278 89.8899 33.7038 89.8104 33.7848C89.7308 33.8658 89.625 33.9347 89.4929 33.9915C89.3608 34.0483 89.1996 34.0767 89.0092 34.0767ZM89.0859 33.625C89.2848 33.625 89.4524 33.5859 89.5888 33.5078C89.7266 33.4297 89.8303 33.3288 89.8999 33.2053C89.9709 33.0817 90.0064 32.9517 90.0064 32.8153V32.3551C89.9851 32.3807 89.9382 32.4041 89.8658 32.4254C89.7947 32.4453 89.7124 32.4631 89.6186 32.4787C89.5263 32.4929 89.4361 32.5057 89.348 32.517C89.2614 32.527 89.1911 32.5355 89.1371 32.5426C89.0064 32.5597 88.8842 32.5874 88.7706 32.6257C88.6584 32.6626 88.5675 32.7187 88.4979 32.794C88.4297 32.8679 88.3956 32.9687 88.3956 33.0966C88.3956 33.2713 88.4602 33.4034 88.5895 33.4929C88.7202 33.581 88.8857 33.625 89.0859 33.625ZM95.4327 31.4602L94.981 31.5881C94.9526 31.5128 94.9107 31.4396 94.8553 31.3686C94.8013 31.2962 94.7275 31.2365 94.6337 31.1896C94.54 31.1428 94.4199 31.1193 94.2736 31.1193C94.0733 31.1193 93.9064 31.1655 93.7729 31.2578C93.6408 31.3487 93.5748 31.4645 93.5748 31.6051C93.5748 31.7301 93.6202 31.8288 93.7111 31.9013C93.802 31.9737 93.9441 32.0341 94.1373 32.0824L94.623 32.2017C94.9157 32.2727 95.1337 32.3814 95.2772 32.5277C95.4206 32.6726 95.4924 32.8594 95.4924 33.0881C95.4924 33.2756 95.4384 33.4432 95.3304 33.5909C95.2239 33.7386 95.0748 33.8551 94.883 33.9403C94.6912 34.0256 94.4682 34.0682 94.214 34.0682C93.8801 34.0682 93.6039 33.9957 93.3851 33.8509C93.1664 33.706 93.0279 33.4943 92.9696 33.2159L93.4469 33.0966C93.4924 33.2727 93.5783 33.4048 93.7047 33.4929C93.8326 33.581 93.9995 33.625 94.2054 33.625C94.4398 33.625 94.6259 33.5753 94.7637 33.4759C94.9029 33.375 94.9725 33.2543 94.9725 33.1136C94.9725 33 94.9327 32.9048 94.8532 32.8281C94.7736 32.75 94.6515 32.6918 94.4867 32.6534L93.9412 32.5256C93.6415 32.4545 93.4213 32.3445 93.2807 32.1953C93.1415 32.0447 93.0719 31.8565 93.0719 31.6307C93.0719 31.446 93.1238 31.2827 93.2275 31.1406C93.3326 30.9986 93.4753 30.8871 93.6557 30.8061C93.8375 30.7251 94.0435 30.6847 94.2736 30.6847C94.5975 30.6847 94.8517 30.7557 95.0364 30.8977C95.2225 31.0398 95.3546 31.2273 95.4327 31.4602ZM97.2124 34.0767C97.005 34.0767 96.8168 34.0376 96.6477 33.9595C96.4787 33.88 96.3445 33.7656 96.245 33.6165C96.1456 33.4659 96.0959 33.2841 96.0959 33.071C96.0959 32.8835 96.1328 32.7315 96.2067 32.6151C96.2805 32.4972 96.3793 32.4048 96.5028 32.3381C96.6264 32.2713 96.7628 32.2216 96.9119 32.1889C97.0625 32.1548 97.2138 32.1278 97.3658 32.108C97.5646 32.0824 97.7259 32.0632 97.8494 32.0504C97.9744 32.0362 98.0653 32.0128 98.1222 31.9801C98.1804 31.9474 98.2095 31.8906 98.2095 31.8097V31.7926C98.2095 31.5824 98.152 31.419 98.0369 31.3026C97.9233 31.1861 97.7507 31.1278 97.5192 31.1278C97.2791 31.1278 97.0909 31.1804 96.9545 31.2855C96.8182 31.3906 96.7223 31.5028 96.6669 31.6222L96.1896 31.4517C96.2749 31.2528 96.3885 31.098 96.5305 30.9872C96.674 30.875 96.8303 30.7969 96.9993 30.7528C97.1697 30.7074 97.3374 30.6847 97.5021 30.6847C97.6072 30.6847 97.728 30.6974 97.8643 30.723C98.0021 30.7472 98.1349 30.7976 98.2628 30.8743C98.392 30.951 98.4993 31.0668 98.5845 31.2216C98.6697 31.3764 98.7124 31.5838 98.7124 31.8438V34H98.2095V33.5568H98.1839C98.1499 33.6278 98.093 33.7038 98.0135 33.7848C97.9339 33.8658 97.8281 33.9347 97.696 33.9915C97.5639 34.0483 97.4027 34.0767 97.2124 34.0767ZM97.2891 33.625C97.4879 33.625 97.6555 33.5859 97.7919 33.5078C97.9297 33.4297 98.0334 33.3288 98.103 33.2053C98.174 33.0817 98.2095 32.9517 98.2095 32.8153V32.3551C98.1882 32.3807 98.1413 32.4041 98.0689 32.4254C97.9979 32.4453 97.9155 32.4631 97.8217 32.4787C97.7294 32.4929 97.6392 32.5057 97.5511 32.517C97.4645 32.527 97.3942 32.5355 97.3402 32.5426C97.2095 32.5597 97.0874 32.5874 96.9737 32.6257C96.8615 32.6626 96.7706 32.7187 96.701 32.794C96.6328 32.8679 96.5987 32.9687 96.5987 33.0966C96.5987 33.2713 96.6634 33.4034 96.7926 33.4929C96.9233 33.581 97.0888 33.625 97.2891 33.625ZM103.994 30.7273L102.784 34H102.272L101.062 30.7273H101.607L102.511 33.3352H102.545L103.448 30.7273H103.994ZM105.521 34.0767C105.314 34.0767 105.125 34.0376 104.956 33.9595C104.787 33.88 104.653 33.7656 104.554 33.6165C104.454 33.4659 104.404 33.2841 104.404 33.071C104.404 32.8835 104.441 32.7315 104.515 32.6151C104.589 32.4972 104.688 32.4048 104.811 32.3381C104.935 32.2713 105.071 32.2216 105.221 32.1889C105.371 32.1548 105.522 32.1278 105.674 32.108C105.873 32.0824 106.034 32.0632 106.158 32.0504C106.283 32.0362 106.374 32.0128 106.431 31.9801C106.489 31.9474 106.518 31.8906 106.518 31.8097V31.7926C106.518 31.5824 106.461 31.419 106.346 31.3026C106.232 31.1861 106.059 31.1278 105.828 31.1278C105.588 31.1278 105.4 31.1804 105.263 31.2855C105.127 31.3906 105.031 31.5028 104.975 31.6222L104.498 31.4517C104.583 31.2528 104.697 31.098 104.839 30.9872C104.983 30.875 105.139 30.7969 105.308 30.7528C105.478 30.7074 105.646 30.6847 105.811 30.6847C105.916 30.6847 106.037 30.6974 106.173 30.723C106.311 30.7472 106.444 30.7976 106.571 30.8743C106.701 30.951 106.808 31.0668 106.893 31.2216C106.978 31.3764 107.021 31.5838 107.021 31.8438V34H106.518V33.5568H106.493C106.458 33.6278 106.402 33.7038 106.322 33.7848C106.243 33.8658 106.137 33.9347 106.005 33.9915C105.873 34.0483 105.711 34.0767 105.521 34.0767ZM105.598 33.625C105.797 33.625 105.964 33.5859 106.1 33.5078C106.238 33.4297 106.342 33.3288 106.412 33.2053C106.483 33.0817 106.518 32.9517 106.518 32.8153V32.3551C106.497 32.3807 106.45 32.4041 106.377 32.4254C106.306 32.4453 106.224 32.4631 106.13 32.4787C106.038 32.4929 105.948 32.5057 105.86 32.517C105.773 32.527 105.703 32.5355 105.649 32.5426C105.518 32.5597 105.396 32.5874 105.282 32.6257C105.17 32.6626 105.079 32.7187 105.01 32.794C104.941 32.8679 104.907 32.9687 104.907 33.0966C104.907 33.2713 104.972 33.4034 105.101 33.4929C105.232 33.581 105.397 33.625 105.598 33.625ZM108.442 29.6364V34H107.939V29.6364H108.442ZM110.735 34.0682C110.419 34.0682 110.147 33.9986 109.919 33.8594C109.691 33.7188 109.516 33.5227 109.392 33.2713C109.27 33.0185 109.209 32.7244 109.209 32.3892C109.209 32.054 109.27 31.7585 109.392 31.5028C109.516 31.2457 109.688 31.0455 109.908 30.902C110.13 30.7571 110.388 30.6847 110.684 30.6847C110.854 30.6847 111.022 30.7131 111.189 30.7699C111.355 30.8267 111.506 30.919 111.642 31.0469C111.779 31.1733 111.887 31.3409 111.968 31.5497C112.049 31.7585 112.09 32.0156 112.09 32.321V32.5341H109.567V32.0994H111.578C111.578 31.9148 111.542 31.75 111.468 31.6051C111.395 31.4602 111.292 31.3459 111.157 31.2621C111.023 31.1783 110.865 31.1364 110.684 31.1364C110.483 31.1364 110.31 31.1861 110.164 31.2855C110.019 31.3835 109.907 31.5114 109.829 31.669C109.751 31.8267 109.712 31.9957 109.712 32.1761V32.4659C109.712 32.7131 109.755 32.9226 109.84 33.0945C109.926 33.2649 110.047 33.3949 110.2 33.4844C110.353 33.5724 110.532 33.6165 110.735 33.6165C110.867 33.6165 110.986 33.598 111.093 33.5611C111.201 33.5227 111.294 33.4659 111.372 33.3906C111.45 33.3139 111.51 33.2187 111.553 33.1051L112.039 33.2415C111.988 33.4062 111.902 33.5511 111.781 33.6761C111.66 33.7997 111.511 33.8963 111.333 33.9659C111.156 34.0341 110.956 34.0682 110.735 34.0682ZM114.917 32.6619V30.7273H115.42V34H114.917V33.446H114.883C114.806 33.6122 114.687 33.7536 114.525 33.87C114.363 33.9851 114.159 34.0426 113.912 34.0426C113.707 34.0426 113.525 33.9979 113.366 33.9084C113.207 33.8175 113.082 33.6811 112.991 33.4993C112.9 33.3161 112.855 33.0852 112.855 32.8068V30.7273H113.358V32.7727C113.358 33.0114 113.424 33.2017 113.558 33.3438C113.693 33.4858 113.865 33.5568 114.074 33.5568C114.199 33.5568 114.326 33.5249 114.455 33.4609C114.586 33.397 114.695 33.299 114.783 33.1669C114.873 33.0348 114.917 32.8665 114.917 32.6619ZM116.341 34V30.7273H116.827V31.2216H116.861C116.921 31.0597 117.029 30.9283 117.185 30.8274C117.341 30.7266 117.517 30.6761 117.713 30.6761C117.75 30.6761 117.796 30.6768 117.852 30.6783C117.907 30.6797 117.949 30.6818 117.977 30.6847V31.196C117.96 31.1918 117.921 31.1854 117.86 31.1768C117.801 31.1669 117.737 31.1619 117.671 31.1619C117.512 31.1619 117.369 31.1953 117.244 31.2621C117.121 31.3274 117.023 31.4183 116.95 31.5348C116.879 31.6499 116.844 31.7812 116.844 31.929V34H116.341ZM118.565 34.0341C118.46 34.0341 118.37 33.9964 118.294 33.9212C118.219 33.8459 118.181 33.7557 118.181 33.6506C118.181 33.5455 118.219 33.4553 118.294 33.38C118.37 33.3047 118.46 33.267 118.565 33.267C118.67 33.267 118.76 33.3047 118.836 33.38C118.911 33.4553 118.949 33.5455 118.949 33.6506C118.949 33.7202 118.931 33.7841 118.895 33.8423C118.861 33.9006 118.815 33.9474 118.757 33.983C118.7 34.017 118.636 34.0341 118.565 34.0341Z" fill="#111827"/>
<path d="M110.47 10.67C109.863 10.67 109.56 10.53 109.56 10.25C109.56 10.0167 109.723 9.69 110.05 9.27C110.423 8.80333 110.843 8.40667 111.31 8.08C112.337 7.42667 113.13 6.86667 113.69 6.4C114.297 5.93333 115.02 5.14 115.86 4.02C115.907 4.11333 115.93 4.3 115.93 4.58C115.93 5.18667 115.673 5.93333 115.16 6.82C114.693 7.66 114.157 8.43 113.55 9.13C112.943 9.83 112.407 10.2733 111.94 10.46C111.52 10.6 111.03 10.67 110.47 10.67ZM104.24 27.82C103.867 27.82 103.517 27.68 103.19 27.4C102.863 27.12 102.7 26.7467 102.7 26.28C102.7 25.3 103.377 23.5033 104.73 20.89L105.5 19.35C105.593 19.2567 105.71 19.0233 105.85 18.65C106.037 18.2767 106.293 17.7867 106.62 17.18C106.947 16.5267 107.203 15.9433 107.39 15.43C107.577 14.9167 107.717 14.4267 107.81 13.96C107.81 13.9133 107.903 13.82 108.09 13.68C108.277 13.54 108.463 13.4233 108.65 13.33L109.07 13.26C109.443 13.26 109.747 13.33 109.98 13.47C110.26 13.61 110.353 13.7967 110.26 14.03C109.933 14.73 109.653 15.3367 109.42 15.85C109.187 16.3633 109 16.8067 108.86 17.18H108.79C108.277 18.3467 107.833 19.4667 107.46 20.54C107.133 21.5667 106.993 22.5467 107.04 23.48L107.11 25.37C107.063 25.8367 106.9 26.2333 106.62 26.56C106.433 26.7 106.177 26.8633 105.85 27.05C105.523 27.2833 105.103 27.5167 104.59 27.75C104.543 27.7967 104.427 27.82 104.24 27.82ZM110.636 27.4C109.516 27.4 108.653 27.05 108.046 26.35C107.486 25.6967 107.206 24.8333 107.206 23.76C107.206 21.8467 107.906 19.98 109.306 18.16C110.426 16.7133 111.663 15.4067 113.016 14.24C114.416 13.0267 115.77 12.07 117.076 11.37C118.43 10.6233 119.573 10.25 120.506 10.25C121.393 10.25 121.976 10.6233 122.256 11.37C122.443 11.7433 122.536 12.1867 122.536 12.7C122.536 13.6333 122.186 14.1 121.486 14.1C121.16 14.1 120.856 13.96 120.576 13.68C120.343 13.3533 120.226 12.91 120.226 12.35C119.713 12.1167 119.013 12.2333 118.126 12.7C117.286 13.12 116.4 13.75 115.466 14.59C114.533 15.3833 113.646 16.2467 112.806 17.18C111.966 18.0667 111.313 18.8367 110.846 19.49C110.006 20.6567 109.586 21.94 109.586 23.34C109.586 23.9933 109.75 24.53 110.076 24.95C110.403 25.37 110.893 25.58 111.546 25.58C112.153 25.58 112.876 25.3933 113.716 25.02C114.323 24.6933 114.883 24.39 115.396 24.11C115.956 23.83 116.47 23.5733 116.936 23.34C119.83 21.7067 121.463 20.89 121.836 20.89C121.976 20.89 122.046 20.96 122.046 21.1C122.046 21.24 121.93 21.4267 121.696 21.66C121.23 22.08 120.483 22.6633 119.456 23.41C118.43 24.1567 117.333 24.8567 116.166 25.51C115 26.1633 113.926 26.6533 112.946 26.98C112.06 27.26 111.29 27.4 110.636 27.4ZM127.327 10.67C126.721 10.67 126.417 10.53 126.417 10.25C126.417 10.0167 126.581 9.69 126.907 9.27C127.281 8.80333 127.701 8.40667 128.167 8.08C129.194 7.42667 129.987 6.86667 130.547 6.4C131.154 5.93333 131.877 5.14 132.717 4.02C132.764 4.11333 132.787 4.3 132.787 4.58C132.787 5.18667 132.531 5.93333 132.017 6.82C131.551 7.66 131.014 8.43 130.407 9.13C129.801 9.83 129.264 10.2733 128.797 10.46C128.377 10.6 127.887 10.67 127.327 10.67ZM121.097 27.82C120.724 27.82 120.374 27.68 120.047 27.4C119.721 27.12 119.557 26.7467 119.557 26.28C119.557 25.3 120.234 23.5033 121.587 20.89L122.357 19.35C122.451 19.2567 122.567 19.0233 122.707 18.65C122.894 18.2767 123.151 17.7867 123.477 17.18C123.804 16.5267 124.061 15.9433 124.247 15.43C124.434 14.9167 124.574 14.4267 124.667 13.96C124.667 13.9133 124.761 13.82 124.947 13.68C125.134 13.54 125.321 13.4233 125.507 13.33L125.927 13.26C126.301 13.26 126.604 13.33 126.837 13.47C127.117 13.61 127.211 13.7967 127.117 14.03C126.791 14.73 126.511 15.3367 126.277 15.85C126.044 16.3633 125.857 16.8067 125.717 17.18H125.647C125.134 18.3467 124.691 19.4667 124.317 20.54C123.991 21.5667 123.851 22.5467 123.897 23.48L123.967 25.37C123.921 25.8367 123.757 26.2333 123.477 26.56C123.291 26.7 123.034 26.8633 122.707 27.05C122.381 27.2833 121.961 27.5167 121.447 27.75C121.401 27.7967 121.284 27.82 121.097 27.82Z" fill="#22C55E"/>
</g>
<defs>
<clipPath id="clip0_3276_3">
<rect width="152" height="40" fill="white"/>
</clipPath>
</defs>
</svg>
