<svg width="48" height="48" viewBox="0 0 48 48" fill="none" xmlns="http://www.w3.org/2000/svg">
<rect width="48" height="48" fill="#111827"/>
<path d="M14.1 15.1C13.2333 15.1 12.8 14.9 12.8 14.5C12.8 14.1667 13.0333 13.7 13.5 13.1C14.0333 12.4333 14.6333 11.8667 15.3 11.4C16.7667 10.4667 17.9 9.66667 18.7 9C19.5667 8.33333 20.6 7.2 21.8 5.6C21.8667 5.73333 21.9 6 21.9 6.4C21.9 7.26667 21.5333 8.33333 20.8 9.6C20.1333 10.8 19.3667 11.9 18.5 12.9C17.6333 13.9 16.8667 14.5333 16.2 14.8C15.6 15 14.9 15.1 14.1 15.1ZM5.2 39.6C4.66667 39.6 4.16667 39.4 3.7 39C3.23333 38.6 3 38.0667 3 37.4C3 36 3.96667 33.4333 5.9 29.7L7 27.5C7.13333 27.3667 7.3 27.0333 7.5 26.5C7.76667 25.9667 8.13333 25.2667 8.6 24.4C9.06667 23.4667 9.43333 22.6333 9.7 21.9C9.96667 21.1667 10.1667 20.4667 10.3 19.8C10.3 19.7333 10.4333 19.6 10.7 19.4C10.9667 19.2 11.2333 19.0333 11.5 18.9L12.1 18.8C12.6333 18.8 13.0667 18.9 13.4 19.1C13.8 19.3 13.9333 19.5667 13.8 19.9C13.3333 20.9 12.9333 21.7667 12.6 22.5C12.2667 23.2333 12 23.8667 11.8 24.4H11.7C10.9667 26.0667 10.3333 27.6667 9.8 29.2C9.33333 30.6667 9.13333 32.0667 9.2 33.4L9.3 36.1C9.23333 36.7667 9 37.3333 8.6 37.8C8.33333 38 7.96667 38.2333 7.5 38.5C7.03333 38.8333 6.43333 39.1667 5.7 39.5C5.63333 39.5667 5.46667 39.6 5.2 39.6ZM14.3375 39C12.7375 39 11.5042 38.5 10.6375 37.5C9.8375 36.5667 9.4375 35.3333 9.4375 33.8C9.4375 31.0667 10.4375 28.4 12.4375 25.8C14.0375 23.7333 15.8042 21.8667 17.7375 20.2C19.7375 18.4667 21.6708 17.1 23.5375 16.1C25.4708 15.0333 27.1042 14.5 28.4375 14.5C29.7042 14.5 30.5375 15.0333 30.9375 16.1C31.2042 16.6333 31.3375 17.2667 31.3375 18C31.3375 19.3333 30.8375 20 29.8375 20C29.3708 20 28.9375 19.8 28.5375 19.4C28.2042 18.9333 28.0375 18.3 28.0375 17.5C27.3042 17.1667 26.3042 17.3333 25.0375 18C23.8375 18.6 22.5708 19.5 21.2375 20.7C19.9042 21.8333 18.6375 23.0667 17.4375 24.4C16.2375 25.6667 15.3042 26.7667 14.6375 27.7C13.4375 29.3667 12.8375 31.2 12.8375 33.2C12.8375 34.1333 13.0708 34.9 13.5375 35.5C14.0042 36.1 14.7042 36.4 15.6375 36.4C16.5042 36.4 17.5375 36.1333 18.7375 35.6C19.6042 35.1333 20.4042 34.7 21.1375 34.3C21.9375 33.9 22.6708 33.5333 23.3375 33.2C27.4708 30.8667 29.8042 29.7 30.3375 29.7C30.5375 29.7 30.6375 29.8 30.6375 30C30.6375 30.2 30.4708 30.4667 30.1375 30.8C29.4708 31.4 28.4042 32.2333 26.9375 33.3C25.4708 34.3667 23.9042 35.3667 22.2375 36.3C20.5708 37.2333 19.0375 37.9333 17.6375 38.4C16.3708 38.8 15.2708 39 14.3375 39ZM38.182 15.1C37.3154 15.1 36.882 14.9 36.882 14.5C36.882 14.1667 37.1154 13.7 37.582 13.1C38.1154 12.4333 38.7154 11.8667 39.382 11.4C40.8487 10.4667 41.982 9.66667 42.782 9C43.6487 8.33333 44.682 7.2 45.882 5.6C45.9487 5.73333 45.982 6 45.982 6.4C45.982 7.26667 45.6154 8.33333 44.882 9.6C44.2154 10.8 43.4487 11.9 42.582 12.9C41.7154 13.9 40.9487 14.5333 40.282 14.8C39.682 15 38.982 15.1 38.182 15.1ZM29.282 39.6C28.7487 39.6 28.2487 39.4 27.782 39C27.3154 38.6 27.082 38.0667 27.082 37.4C27.082 36 28.0487 33.4333 29.982 29.7L31.082 27.5C31.2154 27.3667 31.382 27.0333 31.582 26.5C31.8487 25.9667 32.2154 25.2667 32.682 24.4C33.1487 23.4667 33.5154 22.6333 33.782 21.9C34.0487 21.1667 34.2487 20.4667 34.382 19.8C34.382 19.7333 34.5154 19.6 34.782 19.4C35.0487 19.2 35.3154 19.0333 35.582 18.9L36.182 18.8C36.7154 18.8 37.1487 18.9 37.482 19.1C37.882 19.3 38.0154 19.5667 37.882 19.9C37.4154 20.9 37.0154 21.7667 36.682 22.5C36.3487 23.2333 36.082 23.8667 35.882 24.4H35.782C35.0487 26.0667 34.4154 27.6667 33.882 29.2C33.4154 30.6667 33.2154 32.0667 33.282 33.4L33.382 36.1C33.3154 36.7667 33.082 37.3333 32.682 37.8C32.4154 38 32.0487 38.2333 31.582 38.5C31.1154 38.8333 30.5154 39.1667 29.782 39.5C29.7154 39.5667 29.5487 39.6 29.282 39.6Z" fill="white"/>
</svg>
